<mxfile host="app.diagrams.net" agent="Mozilla/5.0 (Windows NT 10.0; Win64; x64) AppleWebKit/537.36 (KHTML, like Gecko) Chrome/138.0.0.0 Safari/537.36" version="28.0.6">
  <diagram name="Page-1" id="NQNZWJLPwkCHG7ZgbSub">
    <mxGraphModel dx="2276" dy="811" grid="1" gridSize="10" guides="1" tooltips="1" connect="1" arrows="1" fold="1" page="1" pageScale="1" pageWidth="850" pageHeight="1100" math="0" shadow="0">
      <root>
        <mxCell id="0" />
        <mxCell id="1" parent="0" />
        <mxCell id="zPRTyZwXxBiICfu-Dwaq-2" value="User" style="whiteSpace=wrap;html=1;aspect=fixed;" parent="1" vertex="1">
          <mxGeometry x="-70" y="400" width="120" height="120" as="geometry" />
        </mxCell>
        <mxCell id="zPRTyZwXxBiICfu-Dwaq-5" value="2.1&lt;div&gt;Add&amp;nbsp;&lt;span style=&quot;background-color: transparent; color: light-dark(rgb(0, 0, 0), rgb(255, 255, 255));&quot;&gt;category&lt;/span&gt;&lt;/div&gt;" style="ellipse;whiteSpace=wrap;html=1;aspect=fixed;" parent="1" vertex="1">
          <mxGeometry x="310" y="230" width="100" height="100" as="geometry" />
        </mxCell>
        <mxCell id="zPRTyZwXxBiICfu-Dwaq-6" value="&lt;div&gt;2.2&lt;/div&gt;&lt;div&gt;Edit&amp;nbsp;&lt;span style=&quot;background-color: transparent; color: light-dark(rgb(0, 0, 0), rgb(255, 255, 255));&quot;&gt;category&lt;/span&gt;&lt;/div&gt;" style="ellipse;whiteSpace=wrap;html=1;aspect=fixed;" parent="1" vertex="1">
          <mxGeometry x="310" y="400" width="100" height="100" as="geometry" />
        </mxCell>
        <mxCell id="zPRTyZwXxBiICfu-Dwaq-7" value="2.3&lt;div&gt;View&amp;nbsp;&lt;span style=&quot;background-color: transparent; color: light-dark(rgb(0, 0, 0), rgb(255, 255, 255));&quot;&gt;category&lt;/span&gt;&lt;/div&gt;" style="ellipse;whiteSpace=wrap;html=1;aspect=fixed;" parent="1" vertex="1">
          <mxGeometry x="310" y="570" width="100" height="100" as="geometry" />
        </mxCell>
        <mxCell id="zPRTyZwXxBiICfu-Dwaq-19" value="" style="endArrow=classic;html=1;rounded=0;curved=1;exitX=1.025;exitY=0.442;exitDx=0;exitDy=0;exitPerimeter=0;" parent="1" source="zPRTyZwXxBiICfu-Dwaq-2" target="zPRTyZwXxBiICfu-Dwaq-6" edge="1">
          <mxGeometry width="50" height="50" relative="1" as="geometry">
            <mxPoint x="-23" y="526.5" as="sourcePoint" />
            <mxPoint x="310" y="393.5" as="targetPoint" />
            <Array as="points">
              <mxPoint x="160" y="410" />
            </Array>
          </mxGeometry>
        </mxCell>
        <mxCell id="zPRTyZwXxBiICfu-Dwaq-20" value="" style="endArrow=classic;html=1;rounded=0;curved=1;entryX=0.967;entryY=0.658;entryDx=0;entryDy=0;exitX=0.01;exitY=0.66;exitDx=0;exitDy=0;entryPerimeter=0;exitPerimeter=0;" parent="1" source="zPRTyZwXxBiICfu-Dwaq-6" target="zPRTyZwXxBiICfu-Dwaq-2" edge="1">
          <mxGeometry width="50" height="50" relative="1" as="geometry">
            <mxPoint x="310" y="460" as="sourcePoint" />
            <mxPoint x="10" y="580" as="targetPoint" />
            <Array as="points">
              <mxPoint x="180" y="530" />
            </Array>
          </mxGeometry>
        </mxCell>
        <mxCell id="zPRTyZwXxBiICfu-Dwaq-81" value="" style="group" parent="1" vertex="1" connectable="0">
          <mxGeometry x="680" y="410" width="120" height="50" as="geometry" />
        </mxCell>
        <mxCell id="zPRTyZwXxBiICfu-Dwaq-82" value="" style="endArrow=none;html=1;rounded=0;" parent="zPRTyZwXxBiICfu-Dwaq-81" edge="1">
          <mxGeometry width="50" height="50" relative="1" as="geometry">
            <mxPoint y="50" as="sourcePoint" />
            <mxPoint as="targetPoint" />
          </mxGeometry>
        </mxCell>
        <mxCell id="zPRTyZwXxBiICfu-Dwaq-84" value="" style="group" parent="zPRTyZwXxBiICfu-Dwaq-81" vertex="1" connectable="0">
          <mxGeometry width="120" height="50" as="geometry" />
        </mxCell>
        <mxCell id="zPRTyZwXxBiICfu-Dwaq-85" value="" style="endArrow=none;html=1;rounded=0;" parent="zPRTyZwXxBiICfu-Dwaq-84" edge="1">
          <mxGeometry width="50" height="50" relative="1" as="geometry">
            <mxPoint as="sourcePoint" />
            <mxPoint x="120" as="targetPoint" />
          </mxGeometry>
        </mxCell>
        <mxCell id="zPRTyZwXxBiICfu-Dwaq-86" value="" style="endArrow=none;html=1;rounded=0;" parent="zPRTyZwXxBiICfu-Dwaq-84" edge="1">
          <mxGeometry width="50" height="50" relative="1" as="geometry">
            <mxPoint y="50" as="sourcePoint" />
            <mxPoint x="120" y="50" as="targetPoint" />
          </mxGeometry>
        </mxCell>
        <mxCell id="zPRTyZwXxBiICfu-Dwaq-83" value="&lt;span style=&quot;text-wrap-mode: wrap;&quot;&gt;category_tbl&lt;/span&gt;" style="text;html=1;align=center;verticalAlign=middle;resizable=0;points=[];autosize=1;strokeColor=none;fillColor=none;" parent="zPRTyZwXxBiICfu-Dwaq-84" vertex="1">
          <mxGeometry y="10" width="90" height="30" as="geometry" />
        </mxCell>
        <mxCell id="zPRTyZwXxBiICfu-Dwaq-115" value="" style="endArrow=classic;html=1;rounded=0;curved=1;exitX=0.96;exitY=0.29;exitDx=0;exitDy=0;exitPerimeter=0;" parent="1" source="zPRTyZwXxBiICfu-Dwaq-6" edge="1">
          <mxGeometry width="50" height="50" relative="1" as="geometry">
            <mxPoint x="410" y="444" as="sourcePoint" />
            <mxPoint x="680" y="420" as="targetPoint" />
            <Array as="points">
              <mxPoint x="540" y="400" />
            </Array>
          </mxGeometry>
        </mxCell>
        <mxCell id="zPRTyZwXxBiICfu-Dwaq-116" value="" style="endArrow=classic;html=1;rounded=0;curved=1;entryX=0.95;entryY=0.67;entryDx=0;entryDy=0;entryPerimeter=0;" parent="1" target="zPRTyZwXxBiICfu-Dwaq-6" edge="1">
          <mxGeometry width="50" height="50" relative="1" as="geometry">
            <mxPoint x="680" y="440" as="sourcePoint" />
            <mxPoint x="419" y="365" as="targetPoint" />
            <Array as="points">
              <mxPoint x="540" y="490" />
            </Array>
          </mxGeometry>
        </mxCell>
        <mxCell id="gyCbLLkjQCOj8ZmGTFkY-1" value="" style="endArrow=classic;html=1;rounded=0;curved=1;exitX=1;exitY=0;exitDx=0;exitDy=0;" parent="1" source="zPRTyZwXxBiICfu-Dwaq-5" edge="1">
          <mxGeometry width="50" height="50" relative="1" as="geometry">
            <mxPoint x="330" y="410" as="sourcePoint" />
            <mxPoint x="710" y="410" as="targetPoint" />
            <Array as="points">
              <mxPoint x="630" y="290" />
            </Array>
          </mxGeometry>
        </mxCell>
        <mxCell id="gyCbLLkjQCOj8ZmGTFkY-2" value="" style="endArrow=classic;html=1;rounded=0;curved=1;entryX=1;entryY=0.5;entryDx=0;entryDy=0;" parent="1" target="zPRTyZwXxBiICfu-Dwaq-5" edge="1">
          <mxGeometry width="50" height="50" relative="1" as="geometry">
            <mxPoint x="690" y="410" as="sourcePoint" />
            <mxPoint x="275" y="440" as="targetPoint" />
            <Array as="points">
              <mxPoint x="500" y="360" />
            </Array>
          </mxGeometry>
        </mxCell>
        <mxCell id="gyCbLLkjQCOj8ZmGTFkY-3" value="" style="endArrow=classic;html=1;rounded=0;curved=1;entryX=0.75;entryY=0;entryDx=0;entryDy=0;exitX=-0.03;exitY=0.58;exitDx=0;exitDy=0;exitPerimeter=0;" parent="1" source="zPRTyZwXxBiICfu-Dwaq-5" target="zPRTyZwXxBiICfu-Dwaq-2" edge="1">
          <mxGeometry width="50" height="50" relative="1" as="geometry">
            <mxPoint x="305" y="370" as="sourcePoint" />
            <mxPoint y="383" as="targetPoint" />
            <Array as="points">
              <mxPoint x="200" y="380" />
            </Array>
          </mxGeometry>
        </mxCell>
        <mxCell id="gyCbLLkjQCOj8ZmGTFkY-4" value="" style="endArrow=classic;html=1;rounded=0;curved=1;exitX=0.333;exitY=-0.008;exitDx=0;exitDy=0;exitPerimeter=0;entryX=0;entryY=0;entryDx=0;entryDy=0;" parent="1" source="zPRTyZwXxBiICfu-Dwaq-2" target="zPRTyZwXxBiICfu-Dwaq-5" edge="1">
          <mxGeometry width="50" height="50" relative="1" as="geometry">
            <mxPoint x="-10" y="410" as="sourcePoint" />
            <mxPoint x="323" y="277" as="targetPoint" />
            <Array as="points">
              <mxPoint x="70" y="260" />
            </Array>
          </mxGeometry>
        </mxCell>
        <mxCell id="gyCbLLkjQCOj8ZmGTFkY-5" value="" style="endArrow=classic;html=1;rounded=0;curved=1;entryX=0.425;entryY=1.017;entryDx=0;entryDy=0;exitX=0;exitY=0.7;exitDx=0;exitDy=0;entryPerimeter=0;exitPerimeter=0;" parent="1" source="zPRTyZwXxBiICfu-Dwaq-7" target="zPRTyZwXxBiICfu-Dwaq-2" edge="1">
          <mxGeometry width="50" height="50" relative="1" as="geometry">
            <mxPoint x="305" y="630" as="sourcePoint" />
            <mxPoint y="643" as="targetPoint" />
            <Array as="points">
              <mxPoint x="90" y="660" />
            </Array>
          </mxGeometry>
        </mxCell>
        <mxCell id="gyCbLLkjQCOj8ZmGTFkY-6" value="" style="endArrow=classic;html=1;rounded=0;curved=1;exitX=0.75;exitY=1;exitDx=0;exitDy=0;entryX=0.01;entryY=0.36;entryDx=0;entryDy=0;entryPerimeter=0;" parent="1" source="zPRTyZwXxBiICfu-Dwaq-2" target="zPRTyZwXxBiICfu-Dwaq-7" edge="1">
          <mxGeometry width="50" height="50" relative="1" as="geometry">
            <mxPoint x="20" y="593" as="sourcePoint" />
            <mxPoint x="318" y="580" as="targetPoint" />
            <Array as="points">
              <mxPoint x="167" y="530" />
            </Array>
          </mxGeometry>
        </mxCell>
        <mxCell id="gyCbLLkjQCOj8ZmGTFkY-7" value="" style="endArrow=classic;html=1;rounded=0;curved=1;exitX=1;exitY=0.36;exitDx=0;exitDy=0;exitPerimeter=0;" parent="1" source="zPRTyZwXxBiICfu-Dwaq-7" edge="1">
          <mxGeometry width="50" height="50" relative="1" as="geometry">
            <mxPoint x="425" y="620" as="sourcePoint" />
            <mxPoint x="690" y="460" as="targetPoint" />
            <Array as="points">
              <mxPoint x="500" y="510" />
            </Array>
          </mxGeometry>
        </mxCell>
        <mxCell id="gyCbLLkjQCOj8ZmGTFkY-8" value="" style="endArrow=classic;html=1;rounded=0;curved=1;entryX=1.01;entryY=0.64;entryDx=0;entryDy=0;entryPerimeter=0;" parent="1" target="zPRTyZwXxBiICfu-Dwaq-7" edge="1">
          <mxGeometry width="50" height="50" relative="1" as="geometry">
            <mxPoint x="730" y="460" as="sourcePoint" />
            <mxPoint x="470" y="622" as="targetPoint" />
            <Array as="points">
              <mxPoint x="605" y="645" />
            </Array>
          </mxGeometry>
        </mxCell>
        <mxCell id="gyCbLLkjQCOj8ZmGTFkY-9" value="&lt;span style=&quot;text-wrap-mode: wrap;&quot;&gt;category&lt;/span&gt;&amp;nbsp;Details" style="text;html=1;align=center;verticalAlign=middle;resizable=0;points=[];autosize=1;strokeColor=none;fillColor=none;rotation=-15;" parent="1" vertex="1">
          <mxGeometry x="40" y="265" width="110" height="30" as="geometry" />
        </mxCell>
        <mxCell id="gyCbLLkjQCOj8ZmGTFkY-10" value="&lt;span style=&quot;text-wrap-mode: wrap;&quot;&gt;category&lt;/span&gt;&amp;nbsp;Details" style="text;html=1;align=center;verticalAlign=middle;resizable=0;points=[];autosize=1;strokeColor=none;fillColor=none;rotation=30;" parent="1" vertex="1">
          <mxGeometry x="540" y="265" width="110" height="30" as="geometry" />
        </mxCell>
        <mxCell id="gyCbLLkjQCOj8ZmGTFkY-11" value="Stored Successfully" style="text;html=1;align=center;verticalAlign=middle;resizable=0;points=[];autosize=1;strokeColor=none;fillColor=none;rotation=30;" parent="1" vertex="1">
          <mxGeometry x="410" y="330" width="130" height="30" as="geometry" />
        </mxCell>
        <mxCell id="gyCbLLkjQCOj8ZmGTFkY-12" value="Stored Successfully" style="text;html=1;align=center;verticalAlign=middle;resizable=0;points=[];autosize=1;strokeColor=none;fillColor=none;rotation=-15;" parent="1" vertex="1">
          <mxGeometry x="130" y="350" width="130" height="30" as="geometry" />
        </mxCell>
        <mxCell id="gyCbLLkjQCOj8ZmGTFkY-14" value="&lt;span style=&quot;text-wrap-mode: wrap;&quot;&gt;category&lt;/span&gt;_id" style="text;html=1;align=center;verticalAlign=middle;resizable=0;points=[];autosize=1;strokeColor=none;fillColor=none;rotation=0;" parent="1" vertex="1">
          <mxGeometry x="135" y="400" width="90" height="30" as="geometry" />
        </mxCell>
        <mxCell id="gyCbLLkjQCOj8ZmGTFkY-15" value="&lt;span style=&quot;text-wrap-mode: wrap;&quot;&gt;category&lt;/span&gt;_id" style="text;html=1;align=center;verticalAlign=middle;resizable=0;points=[];autosize=1;strokeColor=none;fillColor=none;rotation=0;" parent="1" vertex="1">
          <mxGeometry x="455" y="390" width="90" height="30" as="geometry" />
        </mxCell>
        <mxCell id="gyCbLLkjQCOj8ZmGTFkY-16" value="Viewed Successfully" style="text;html=1;align=center;verticalAlign=middle;resizable=0;points=[];autosize=1;strokeColor=none;fillColor=none;rotation=15;" parent="1" vertex="1">
          <mxGeometry x="50" y="640" width="130" height="30" as="geometry" />
        </mxCell>
        <mxCell id="gyCbLLkjQCOj8ZmGTFkY-18" value="&lt;span style=&quot;text-wrap-mode: wrap;&quot;&gt;category&lt;/span&gt;_id" style="text;html=1;align=center;verticalAlign=middle;resizable=0;points=[];autosize=1;strokeColor=none;fillColor=none;rotation=15;" parent="1" vertex="1">
          <mxGeometry x="175" y="535" width="90" height="30" as="geometry" />
        </mxCell>
        <mxCell id="gyCbLLkjQCOj8ZmGTFkY-19" value="&lt;span style=&quot;text-wrap-mode: wrap;&quot;&gt;category&lt;/span&gt;_id" style="text;html=1;align=center;verticalAlign=middle;resizable=0;points=[];autosize=1;strokeColor=none;fillColor=none;rotation=-29;" parent="1" vertex="1">
          <mxGeometry x="410" y="535" width="90" height="30" as="geometry" />
        </mxCell>
        <mxCell id="gyCbLLkjQCOj8ZmGTFkY-24" value="Viewed Successfully" style="text;html=1;align=center;verticalAlign=middle;resizable=0;points=[];autosize=1;strokeColor=none;fillColor=none;rotation=-25;" parent="1" vertex="1">
          <mxGeometry x="510" y="605" width="130" height="30" as="geometry" />
        </mxCell>
        <mxCell id="gyCbLLkjQCOj8ZmGTFkY-25" value="Edited Successfully" style="text;html=1;align=center;verticalAlign=middle;resizable=0;points=[];autosize=1;strokeColor=none;fillColor=none;rotation=0;" parent="1" vertex="1">
          <mxGeometry x="115" y="500" width="130" height="30" as="geometry" />
        </mxCell>
        <mxCell id="gyCbLLkjQCOj8ZmGTFkY-26" value="Edited Successfully" style="text;html=1;align=center;verticalAlign=middle;resizable=0;points=[];autosize=1;strokeColor=none;fillColor=none;rotation=0;" parent="1" vertex="1">
          <mxGeometry x="410" y="480" width="130" height="30" as="geometry" />
        </mxCell>
      </root>
    </mxGraphModel>
  </diagram>
</mxfile>
